<svg width="165" height="63" viewBox="0 0 165 63" fill="none" xmlns="http://www.w3.org/2000/svg">
<g filter="url(#filter0_d_28_94)">
<path fill-rule="evenodd" clip-rule="evenodd" d="M69.9186 15.9428C72.9762 17.0408 75.0017 18.8653 75.0017 18.8653C75.0249 17.9794 75.2692 17.069 75.6219 16.2982C75.6219 16.2982 74.6432 14.5791 71.755 12.7169C68.6534 10.7161 65.1131 10.1582 65.1131 10.1582C64.3907 11.6331 63.8779 13.2164 63.6113 14.8751C63.6113 14.8751 66.202 14.6093 69.9186 15.9428Z" fill="#0C294E"/>
<path fill-rule="evenodd" clip-rule="evenodd" d="M72.1148 10.135C75.0321 12.789 76.086 15.4559 76.086 15.4559C76.6259 14.6417 77.3432 13.9405 78.1897 13.3977C78.1897 13.3977 77.1068 10.1982 75.3526 7.83457C73.5985 5.4719 70.7564 3.50977 70.7564 3.50977C69.3689 4.51629 68.1337 5.69809 67.0918 7.02031C67.0918 7.02031 69.985 8.19647 72.1148 10.135Z" fill="#0C294E"/>
<path fill-rule="evenodd" clip-rule="evenodd" d="M77.2449 6.82035C78.5623 9.98974 78.8979 12.9951 78.8979 12.9951C79.7633 12.5654 80.8874 12.2336 81.9152 12.1545C81.9152 12.1545 81.9674 9.09632 81.252 5.95331C80.4146 2.27973 79.4588 0 79.4588 0C77.7308 0.249743 76.0797 0.718135 74.5391 1.37312C74.5391 1.37312 76.3343 4.63109 77.2449 6.82035Z" fill="#0C294E"/>
<path fill-rule="evenodd" clip-rule="evenodd" d="M94.6719 15.9428C91.6135 17.0408 89.5888 18.8653 89.5888 18.8653C89.5658 17.9794 89.3213 17.069 88.9688 16.2982C88.9688 16.2982 89.9475 14.5791 92.8347 12.7169C95.9372 10.7161 99.4776 10.1582 99.4776 10.1582C100.201 11.6331 100.712 13.2164 100.978 14.8751C100.978 14.8751 98.3886 14.6093 94.6719 15.9428Z" fill="#0C294E"/>
<path fill-rule="evenodd" clip-rule="evenodd" d="M92.4753 10.135C89.5591 12.789 88.5041 15.4559 88.5041 15.4559C87.9651 14.6417 87.2469 13.9405 86.4004 13.3977C86.4004 13.3977 87.4833 10.1982 89.2385 7.83457C90.9927 5.4719 93.8338 3.50977 93.8338 3.50977C95.2212 4.51629 96.4564 5.69809 97.4992 7.02031C97.4992 7.02031 94.6051 8.19647 92.4753 10.135Z" fill="#0C294E"/>
<path fill-rule="evenodd" clip-rule="evenodd" d="M87.3441 6.82035C86.0257 9.98974 85.6912 12.9951 85.6912 12.9951C84.8256 12.5654 83.7015 12.2336 82.6727 12.1545C82.6727 12.1545 82.6206 9.09632 83.3369 5.95331C84.1744 2.27973 85.1291 0 85.1291 0C86.8583 0.249743 88.5092 0.718135 90.05 1.37312C90.05 1.37312 88.2538 4.63109 87.3441 6.82035Z" fill="#0C294E"/>
<path fill-rule="evenodd" clip-rule="evenodd" d="M72.4541 26.7331C76.0976 25.1008 79.7722 25.4382 79.7722 25.4382C78.4679 24.9821 77.3399 24.1924 76.5084 23.1821C76.5084 23.1821 73.2455 22.8155 70.745 23.2895C66.9602 24.0077 65.2832 25.2442 65.2832 25.2442C66.0517 26.7313 67.0363 28.1016 68.1985 29.322C68.1985 29.322 69.7613 27.9395 72.4541 26.7331Z" fill="#0C294E"/>
<path fill-rule="evenodd" clip-rule="evenodd" d="M69.6225 21.5655C73.337 21.3978 75.8996 22.311 75.8996 22.311C75.4388 21.5298 75.1374 20.6561 75.0361 19.7277C75.0361 19.7277 72.0859 18.1465 69.366 17.8034C65.6012 17.3284 63.4062 18.0078 63.4062 18.0078C63.4544 19.6854 63.7509 21.3054 64.2628 22.8359C64.2628 22.8359 66.6751 21.6985 69.6225 21.5655Z" fill="#0C294E"/>
<path fill-rule="evenodd" clip-rule="evenodd" d="M82.2946 29.4072C87.6121 29.4072 89.9383 33.7367 89.9383 33.7367C91.5973 33.0439 93.129 32.1364 94.4934 31.0527C94.4934 31.0527 90.0014 25.7363 82.2946 25.7363C74.5888 25.7363 70.0957 31.0527 70.0957 31.0527C71.4622 32.1364 72.9939 33.0439 74.6518 33.7367C74.6518 33.7367 76.9771 29.4072 82.2946 29.4072Z" fill="#0C294E"/>
<path fill-rule="evenodd" clip-rule="evenodd" d="M92.1355 26.7331C88.492 25.1008 84.8164 25.4382 84.8164 25.4382C86.1218 24.9821 87.2498 24.1924 88.0813 23.1821C88.0813 23.1821 91.3441 22.8155 93.8445 23.2895C97.6294 24.0077 99.3074 25.2442 99.3074 25.2442C98.538 26.7313 97.5532 28.1016 96.3901 29.322C96.3901 29.322 94.8284 27.9395 92.1355 26.7331Z" fill="#0C294E"/>
<path fill-rule="evenodd" clip-rule="evenodd" d="M94.9686 21.5655C91.2529 21.3978 88.6914 22.311 88.6914 22.311C89.1522 21.5298 89.4527 20.6561 89.555 19.7277C89.555 19.7277 92.5052 18.1465 95.2251 17.8034C98.9898 17.3284 101.185 18.0078 101.185 18.0078C101.137 19.6854 100.84 21.3054 100.328 22.8359C100.328 22.8359 97.9149 21.6985 94.9686 21.5655Z" fill="#0C294E"/>
<path fill-rule="evenodd" clip-rule="evenodd" d="M7.70164 40.4318V46.7641H10.5407C13.5491 46.7641 14.8535 45.6557 14.8535 43.5975C14.8535 41.5402 13.5702 40.4318 10.5407 40.4318H7.70164ZM7.70164 52.4036H9.65814V53.8473H4V52.4036H5.9555V40.3735H4V38.9277H10.5407C14.1592 38.9277 16.5986 40.4122 16.5986 43.5975C16.5986 46.7839 14.1382 48.2673 10.5407 48.2673H7.70164V52.4036Z" fill="#0C294E"/>
<path fill-rule="evenodd" clip-rule="evenodd" d="M27.1394 47.93C27.1604 45.9123 25.5405 44.3685 23.3746 44.3685C21.2077 44.3685 19.5878 45.9123 19.6089 47.93H27.1394ZM28.4858 50.7997C27.9809 52.6601 26.1296 54.084 23.3746 54.084C19.9665 54.084 17.8848 52.0663 17.8848 48.504C17.8848 45.1216 20.0507 42.9238 23.3746 42.9238C26.9711 42.9238 29.2642 45.5165 28.8014 49.355H19.6299C19.7771 50.9976 20.9973 52.6403 23.3746 52.6403C24.9515 52.6403 26.1085 52.0267 26.6976 50.7997H28.4858Z" fill="#0C294E"/>
<path fill-rule="evenodd" clip-rule="evenodd" d="M34.6084 52.4618H36.4177V53.8472H31.1172V52.4618H32.9255V44.5474H31.1172V43.162H32.9255H34.4823V44.685C35.1554 43.538 36.8174 42.4683 39.0465 43.1809V44.7255C36.3756 44.013 34.6084 45.3975 34.6084 47.8506V52.4618Z" fill="#0C294E"/>
<path fill-rule="evenodd" clip-rule="evenodd" d="M52.3206 52.462H54.1298V53.8472H48.8293V52.462H50.6375V47.9505C50.6375 45.438 49.0397 44.3891 47.2935 44.3891C45.5474 44.3891 44.0547 45.536 44.0547 48.0494V52.462H45.863V53.8472H40.5625V52.462H42.3718V44.5474H40.5625V43.162H42.3718H43.9285V44.685C44.5375 43.7954 45.842 42.9434 47.6091 42.9434C50.1116 42.9434 52.3206 44.2891 52.3206 47.9505V52.462Z" fill="#0C294E"/>
<path fill-rule="evenodd" clip-rule="evenodd" d="M61.1784 52.6403C63.3874 52.6403 65.0273 51.1749 65.0273 48.504C65.0273 45.8332 63.3874 44.3687 61.1784 44.3687C58.9695 44.3687 57.3296 45.8332 57.3296 48.504C57.3296 51.1749 58.9695 52.6403 61.1784 52.6403ZM61.1784 42.9238C64.6697 42.9238 66.7104 45.279 66.7104 48.504C66.7104 51.729 64.6697 54.0842 61.1784 54.0842C57.6872 54.0842 55.6465 51.729 55.6465 48.504C55.6465 45.279 57.6872 42.9238 61.1784 42.9238Z" fill="#0C294E"/>
<path fill-rule="evenodd" clip-rule="evenodd" d="M70.4154 48.5059C70.4154 51.2173 72.1195 52.6422 74.2223 52.6422C76.326 52.6422 78.0301 51.2173 78.0301 48.5059C78.0301 45.7945 76.326 44.3697 74.2223 44.3697C72.1195 44.3697 70.4154 45.7945 70.4154 48.5059ZM79.6489 52.4631H81.4582V53.8485H78.0301V52.3256C77.3569 53.2755 75.8842 54.0861 74.075 54.0861C70.8361 54.0861 68.7324 51.6923 68.7324 48.5059C68.7324 45.3195 70.8361 42.9257 74.075 42.9257C75.779 42.9257 77.2726 43.6383 77.967 44.6862V40.2945H76.1577V38.9082H79.6489V52.4631Z" fill="#0C294E"/>
<path fill-rule="evenodd" clip-rule="evenodd" d="M92.7578 40.4321V45.9727H96.4815C98.8588 45.9727 99.8885 44.8643 99.8885 43.2019C99.8885 41.5405 98.8788 40.4321 96.4815 40.4321H92.7578ZM89.0352 38.9082H96.4815C99.4679 38.9082 101.656 40.4123 101.656 43.2019C101.656 45.5768 100.057 47.0216 97.7438 47.3976L100.33 52.384H102.392V53.8476H99.0891L95.8293 47.4966H92.7578V52.4038H94.5039V53.8476H89.0352V52.4038H90.9907V40.3529H89.0352V38.9082Z" fill="#0C294E"/>
<path fill-rule="evenodd" clip-rule="evenodd" d="M106.052 40.9071H107.966V38.9082H106.052V40.9071ZM107.944 52.4622H109.754V53.8476H104.453V52.4622H106.262V44.5478H104.453V43.1624H106.262H107.944V52.4622Z" fill="#0C294E"/>
<path fill-rule="evenodd" clip-rule="evenodd" d="M122.356 49.9487C121.704 52.382 119.957 54.084 116.867 54.084C113.374 54.084 111.334 51.729 111.334 48.5039C111.334 45.2789 113.374 42.9238 116.867 42.9238C118.486 42.9238 119.957 43.6552 120.631 44.6843V43.1613H122.251V47.0592H120.42C119.915 45.6145 118.885 44.3676 116.867 44.3676C114.657 44.3676 113.017 45.8332 113.017 48.5039C113.017 51.1747 114.657 52.6393 116.867 52.6393C118.78 52.6393 120.084 51.5508 120.61 49.9487H122.356Z" fill="#0C294E"/>
<path fill-rule="evenodd" clip-rule="evenodd" d="M126.06 48.5039C126.06 51.2152 127.763 52.6403 129.867 52.6403C131.97 52.6403 133.675 51.2152 133.675 48.5039C133.675 45.7925 131.97 44.3676 129.867 44.3676C127.763 44.3676 126.06 45.7925 126.06 48.5039ZM133.611 43.1613H137.04V44.5467H135.23V52.4612H137.04V53.8466H133.611V52.3236C132.917 53.3716 131.424 54.084 129.719 54.084C126.481 54.084 124.377 51.6902 124.377 48.5039C124.377 45.3176 126.481 42.9238 129.719 42.9238C131.424 42.9238 132.917 43.6363 133.611 44.6843V43.1613Z" fill="#0C294E"/>
<path fill-rule="evenodd" clip-rule="evenodd" d="M142.973 52.4618H144.781V53.8472H139.48V52.4618H141.29V44.5474H139.48V43.162H141.29H142.846V44.685C143.519 43.538 145.181 42.4683 147.41 43.1809V44.7255C144.739 44.013 142.973 45.3975 142.973 47.8506V52.4618Z" fill="#0C294E"/>
<path fill-rule="evenodd" clip-rule="evenodd" d="M149.958 48.5059C149.958 51.2173 151.66 52.6422 153.764 52.6422C155.868 52.6422 157.573 51.2173 157.573 48.5059C157.573 45.7945 155.868 44.3697 153.764 44.3697C151.66 44.3697 149.958 45.7945 149.958 48.5059ZM159.192 52.4631H161V53.8485H157.573V52.3256C156.9 53.2755 155.426 54.0861 153.617 54.0861C150.379 54.0861 148.275 51.6923 148.275 48.5059C148.275 45.3195 150.379 42.9257 153.617 42.9257C155.322 42.9257 156.815 43.6383 157.51 44.6862V40.2945H155.699V38.9082H159.192V52.4631Z" fill="#0C294E"/>
</g>
<defs>
<filter id="filter0_d_28_94" x="0" y="0" width="165" height="62.0859" filterUnits="userSpaceOnUse" color-interpolation-filters="sRGB">
<feFlood flood-opacity="0" result="BackgroundImageFix"/>
<feColorMatrix in="SourceAlpha" type="matrix" values="0 0 0 0 0 0 0 0 0 0 0 0 0 0 0 0 0 0 127 0" result="hardAlpha"/>
<feOffset dy="4"/>
<feGaussianBlur stdDeviation="2"/>
<feComposite in2="hardAlpha" operator="out"/>
<feColorMatrix type="matrix" values="0 0 0 0 0 0 0 0 0 0 0 0 0 0 0 0 0 0 0.25 0"/>
<feBlend mode="normal" in2="BackgroundImageFix" result="effect1_dropShadow_28_94"/>
<feBlend mode="normal" in="SourceGraphic" in2="effect1_dropShadow_28_94" result="shape"/>
</filter>
</defs>
</svg>
