<svg width="16" height="16" viewBox="0 0 16 16" fill="none" xmlns="http://www.w3.org/2000/svg">
<path d="M6.508 1.02513C7.59239 1.02414 8.65272 1.34444 9.55485 1.94551C10.457 2.54658 11.1604 3.40142 11.576 4.40188C11.9917 5.40234 12.101 6.50347 11.89 7.56597C11.6791 8.62848 11.1574 9.60462 10.3909 10.3709C9.62451 11.1372 8.64777 11.6592 7.58428 11.8709C6.52079 12.0826 5.41834 11.9744 4.41639 11.5601C3.41445 11.1458 2.55802 10.444 1.95546 9.54343C1.35289 8.64285 1.03127 7.58399 1.03127 6.50079C1.03784 5.05144 1.61681 3.66325 2.64233 2.63793C3.66785 1.61261 5.05705 1.03302 6.508 1.02513ZM6.508 0C5.22084 0 3.96258 0.381265 2.89235 1.09558C1.82212 1.8099 0.987969 2.82518 0.495395 4.01305C0.0028199 5.20091 -0.12606 6.508 0.125052 7.76903C0.376165 9.03006 0.995991 10.1884 1.90615 11.0975C2.81631 12.0067 3.97592 12.6258 5.23835 12.8767C6.50078 13.1275 7.80932 12.9988 8.9985 12.5067C10.1877 12.0147 11.2041 11.1815 11.9192 10.1124C12.6343 9.04339 13.016 7.78653 13.016 6.50079C13.016 4.77667 12.3303 3.12317 11.1098 1.90404C9.88936 0.684903 8.23403 0 6.508 0Z" fill="#121212"/>
<path d="M15.8536 15.1479L12.164 11.4375L11.4531 12.1426L15.1427 15.853C15.189 15.8997 15.2441 15.9367 15.3048 15.9621C15.3655 15.9874 15.4306 16.0006 15.4964 16.0008C15.5621 16.0011 15.6273 15.9883 15.6882 15.9634C15.749 15.9385 15.8044 15.9018 15.8511 15.8555C15.8977 15.8092 15.9348 15.7542 15.9602 15.6936C15.9856 15.633 15.9988 15.568 15.999 15.5023C15.9993 15.4366 15.9865 15.3714 15.9616 15.3107C15.9366 15.2499 15.8999 15.1946 15.8536 15.1479Z" fill="#121212"/>
</svg>
